<svg 
  xmlns="http://www.w3.org/2000/svg" 
  xmlns:xlink="http://www.w3.org/1999/xlink" 
  version="1.1" 
  width="1em"
  height="1em"
  viewBox="0 0 15 15">
  <g>
    <path d="M1.41667,11.6667L3.33333,11.6667L3.33333,12.5L0,12.5L0,9.16667L0.833333,9.16667L0.833333,11.0833L3.33333,8.58333L3.91667,9.16667L1.41667,11.6667ZM11.0833,11.6667L8.58333,9.16667L9.16667,8.58333L11.6667,11.0833L11.6667,9.16667L12.5,9.16667L12.5,12.5L9.16667,12.5L9.16667,11.6667L11.0833,11.6667ZM1.41667,0.833333L3.91667,3.33333L3.33333,3.91667L0.833332,1.41667L0.833332,3.33333L0,3.33333L0,0L3.33333,0L3.33333,0.833333L1.41667,0.833333ZM11.0833,0.833333L9.16667,0.833333L9.16667,0L12.5,0L12.5,3.33333L11.6667,3.33333L11.6667,1.41667L9.16667,3.91667L8.58333,3.33333L11.0833,0.833333Z" fill="currentColor" fill-opacity="1">
    </path>
  </g>
</svg>